<svg xmlns="http://www.w3.org/2000/svg" width="100" height="100" viewBox="0 0 100 100">
  <path d="M62.5256479,87.3086205 C69.1675811,85.0855084 72.5491421,95.1859431 65.9059058,97.4090552 C59.855583,99.4419127 53.42345,100.288937 47.052563,99.9136399 C19.498379,98.2860508 -1.53897005,74.6084738 0.0886097938,47.0541333 C1.71618964,19.4997928 25.3936322,-1.53897883 52.9478162,0.0886102578 C80.5020002,1.71619934 101.539349,25.3937764 99.9117694,52.9481168 C99.7814588,55.1751382 99.4882599,57.5142274 99.0569317,59.7021555 C97.7121259,66.5917179 87.2351508,64.5484355 88.5799565,57.65757 C88.9370077,55.8527574 89.161142,54.1587095 89.2692998,52.3226222 C90.5489502,30.6622653 73.9838622,12.0107981 52.3223251,10.7324435 C30.6620912,9.45278574 12.0107299,26.0179679 10.7323825,47.6796279 C9.4527321,69.3399848 26.016517,87.9914521 47.6780541,89.2698067 C52.7315005,89.5682197 57.7250041,88.9205722 62.5256479,87.3086205 Z"/>
</svg>
